<?xml version="1.0" encoding="UTF-8"?>
<svg version="1.1" viewBox="0 0 1816 1416" width="454" height="354" xmlns="http://www.w3.org/2000/svg">
<path transform="translate(541,84)" d="m0 0h26l25 2 24 5 27 9 28 12 26 12 40 20 16 9 16 8 39 20 25 12 41 19 28 12 43 16 40 13 30 8 25 5 24 4 28 3 14 1h91l82-7 47-2h30l33 2 27 4 32 8 25 10 18 10 16 12 12 11 8 8 12 17 8 16 5 15 3 13 1 11v49l-2 25-5 25-14 53-7 28-5 26-3 20-2 25-1 27 1 26 3 26 5 24 6 22 9 25 13 30 16 35 14 33 12 36 8 29 3 20 2 31v14l-2 26-5 22-6 15-13 25-11 16-11 13-16 16-11 9-17 13-19 12-23 12-16 6-15 5-23 6-14 4-8 1-1 6-6 9-8 8-10 4h-14l-11-4-25-13-11-5-17-2-39-9-66-19-29-7-23-4-23-3-29-2-50-1-33 1-27 3-19 4-23 7-26 11-17 8-22 12-27 14-13 8-16 9-22 12-23 11-33 15-38 14-25 7-25 5-36 4-19 1h-55l-17-2-20-5-15-5-20-9-17-9-18-12-16-13-17-17-9-12-14-17-9-11-13-13-14-9-16-6-26-6-62-13-30-8-24-8-20-9-16-8-16-9-19-14-14-12-15-15-9-11-11-15-9-16-8-20-5-20-2-16v-24l3-22 5-19 7-20 14-30 12-22 12-20 13-20 14-20 13-17 14-19 12-18 9-15 10-17 12-23 10-23 23-58 11-30 13-41 10-38 18-70 13-47 12-40 15-44 6-15 7-15 12-25 11-20 14-22 16-21 9-11 9-10 17-17 8-7 17-13 17-11 16-9 20-9 16-5 21-4z" fill="#FCFCFC"/>
<path transform="translate(541,84)" d="m0 0h26l25 2 24 5 27 9 28 12 26 12 40 20 16 9 16 8 39 20 25 12 41 19 28 12 43 16 40 13 30 8 25 5 24 4 28 3 14 1h91l82-7 47-2h30l33 2 27 4 32 8 25 10 18 10 16 12 12 11 8 8 12 17 8 16 5 15 3 13 1 11v49l-2 25-5 25-14 53-7 28-5 26-3 20-2 25-1 27 1 26 3 26 5 24 6 22 9 25 13 30 16 35 14 33 12 36 8 29 3 20 2 31v14l-2 26-5 22-6 15-13 25-11 16-11 13-16 16-11 9-17 13-19 12-23 12-16 6-15 5-23 6-14 4h-6l-1-3-1-549-3-17-5-16-5-12-8-14-9-12-9-10-12-10-16-10-16-7-13-4-17-3-11-1-1-1-1-30v-97l-3-24-6-20-9-19-10-14-9-11-7-7-16-11-21-11-16-5-23-3-77-1h-614l-26 1-22 4-19 7-11 6-12 8-10 8-9 9-10 13-9 16-7 17-3 10-2 15v622l3 10 6 9 9 6 8 2h9l13-5 30-20 43-29 108-72 2-1h84l1 1 1 94 2 22 5 19 6 15 10 17 8 10 9 10 11 9 14 9 20 9 13 4 18 3 22 1h422l7 3 20 12 13 8 27 16 13 8 17 10 11 7 5 4h-10l-36-8-27-7-48-14-29-7-23-4-23-3-29-2-50-1-33 1-27 3-19 4-23 7-26 11-17 8-22 12-27 14-13 8-16 9-22 12-23 11-33 15-38 14-25 7-25 5-36 4-19 1h-55l-17-2-20-5-15-5-20-9-17-9-18-12-16-13-17-17-9-12-14-17-9-11-13-13-14-9-16-6-26-6-62-13-30-8-24-8-20-9-16-8-16-9-19-14-14-12-15-15-9-11-11-15-9-16-8-20-5-20-2-16v-24l3-22 5-19 7-20 14-30 12-22 12-20 13-20 14-20 13-17 14-19 12-18 9-15 10-17 12-23 10-23 23-58 11-30 13-41 10-38 18-70 13-47 12-40 15-44 6-15 7-15 12-25 11-20 14-22 16-21 9-11 9-10 17-17 8-7 17-13 17-11 16-9 20-9 16-5 21-4z" fill="#D3E8FA"/>
<path transform="translate(462,308)" d="m0 0h617l74 1 23 3 18 6 21 11 16 12 9 9 10 13 8 13 7 15 6 20 3 24v102l1 25 17 2 18 4 16 6 18 10 11 9 12 11 10 13 8 14 6 12 5 15 3 13 1 8 1 553h-2l-1 6-6 9-8 8-10 4h-14l-11-4-25-13-11-5-14-9-15-9-17-10-23-14-17-10-24-15-4-1h-426l-26-2-18-4-21-9-11-6-12-9-13-12-11-14-10-17-8-21-4-20-1-15-1-94h-84l-16 10-16 11-105 70-16 11-27 18-12 6-4 1h-9l-8-2-6-4-6-5-5-9-2-8v-622l3-19 7-19 9-17 10-13 9-10 10-9 20-13 16-7 13-4 18-3zm-19 64-11 2-13 5-9 6-9 8-7 10-6 12-3 14-1 346v76l1 129 5-2 15-10 43-29 44-29 24-16 13-8 8-3 671-1 2-4v-428l-1-21-3-14-7-14-9-11-10-8-14-7-6-2-8-1z" fill="#1E3D75"/>
<path transform="translate(1275,627)" d="m0 0 20 4 12 6 10 8 10 12 8 16 1 5 1 25v453l-1 14-3 2-10-5-9-5-11-6-13-8-20-12-17-10-22-13-10-6-9-2-452-1-13-2-16-8-9-7-9-11-6-12-4-14-1-16v-89l73-1h466l12-2 9-6 7-8 3-8 1-105v-182z" fill="#337BB0"/>
<path transform="translate(783,531)" d="m0 0h26l14 3 15 6 11 6 9 7 10 9 9 12 7 12 6 18 2 11v24l-4 17-5 12-6 11-10 13-8 8-15 10-15 7-13 4-6 1h-26l-14-3-15-6-10-6-12-9-8-8-10-14-7-15-4-12-2-11v-25l4-17 5-12 8-13 12-14 12-10 17-9 13-5z" fill="#1E3D75"/>
<path transform="translate(530,531)" d="m0 0h26l19 5 17 8 11 8 12 11 10 14 8 17 4 15 2 14v10l-3 17-5 14-7 14-10 13-9 9-13 9-12 6-18 6-6 1h-26l-14-3-19-8-14-10-9-8-11-14-8-16-5-15-2-11v-23l3-15 6-15 7-11 10-13 10-9 11-7 16-8 13-4z" fill="#1E3E75"/>
<path transform="translate(1038,531)" d="m0 0h25l17 4 18 8 13 9 14 14 7 10 8 16 4 13 2 12v21l-3 15-7 17-8 13-9 10-5 5-8 7-16 9-13 5-13 3h-25l-15-3-15-6-15-9-14-13-10-14-8-16-5-16-1-7v-25l3-14 5-13 6-11 10-13 8-8 14-10 19-9z" fill="#1E3D75"/>
<path transform="translate(462,308)" d="m0 0h617l74 1 23 3 7 2-4 1-10-2-12-1-483-1h-54l-129 1-60 1-13 2-16 5-14 7-12 7-9 7-13 13-10 14-8 14-5 10-4 13-2 21v92l-1 296v233l1 8-2-2-2-8v-622l3-19 7-19 9-17 10-13 9-10 10-9 20-13 16-7 13-4 18-3z" fill="#337BB0"/>
<path transform="translate(1049,595)" d="m0 0 13 2 10 5 6 7 4 9 1 10-2 10-6 10-9 7-11 4h-7l-10-3-9-6-6-8-3-7-1-13 3-10 7-9 10-6z" fill="#FBFCFC"/>
<path transform="translate(795,595)" d="m0 0 10 1 10 4 8 7 5 10 1 5v9l-3 10-6 8-5 4-8 4-7 2-10-1-10-4-8-7-5-10-1-3v-16l6-12 7-6 10-4z" fill="#FBFCFC"/>
<path transform="translate(540,595)" d="m0 0h7l10 3 8 5 6 7 4 11v10l-3 10-6 8-8 6-8 3-9 1-13-4-9-7-5-8-2-7v-14l6-12 9-8z" fill="#FBFCFC"/>
<path transform="translate(1215,1176)" d="m0 0 6 2 21 13 14 8 16 10 22 13 10 6 8 6-2 1-11-7-15-9-17-10-23-14-17-10-12-8z" fill="#337BB0"/>
</svg>
