<?xml version="1.0" encoding="UTF-8"?>
<svg version="1.1" viewBox="0 0 1428 1052" width="357" height="263" xmlns="http://www.w3.org/2000/svg">
<path transform="translate(1095,86)" d="m0 0h19l19 1 26 4 23 7 20 9 14 8 19 14 13 12 10 11 10 14 7 14 4 13 2 17v12l-3 27-7 30-8 30-3 14-2 15-1 25 2 32 3 25 4 16 9 21 9 17 14 23 9 15 10 18 8 16 9 20 10 26 8 29 4 27v40l-3 19-6 20-6 15-8 15-12 18-8 10-11 12-7 7-16 12-23 11-20 6-22 4-11 1h-19l-42-4-36-6-36-7-52-11-30-5-15-5-5-2-12 14-9 11-25 25-11 9-15 12-19 13-15 9-19 10-20 8-25 8-27 6-22 3-15 1h-25l-28-2-24-4-24-5-14-1-8 5-27 11-37 13-42 12-28 7-31 6-36 5-15 1h-24l-20-1-30-4-20-4-22-7-16-7-19-10-18-12-13-11-17-17-12-16-14-20-18-27-17-28-12-20-12-23-15-32-10-27-7-25-5-26-3-25-1-17v-24l2-29 5-37 6-28 10-36 22-66 12-44 7-23 8-21 7-15 10-18 8-12 8-10 9-10 12-12 13-9 16-9 21-8 25-6 20-2h22l22 2 41 7 46 10 55 13 32 5 21 2 17 1h65l14-1 5-1 5-7 3-2 53-2 23-2 20-6 36-13 26-11 34-16 23-11 36-16 34-15 41-16 29-11 41-13 26-5 16-2z" fill="#1F4077"/>
<path transform="translate(291,197)" d="m0 0h22l22 2 41 7 46 10 55 13 32 5 21 2 17 1h65l19-1 1 62 4 6 4 2 38 1 1 1 1 27-1 2-36 8-26 8-23 10-23 12-27 18-14 11-13 11-17 17-9 11-10 12-10 15-13 22-12 25-7 19-4 13-1 1-85 1-5 3-3 4-1 7 3 8 5 3 80 1-5 41-1 1-101 1-6 4-2 3v10l4 6 6 3 99 1 1 1 4 34v6l-1 1-77 1-5 3-3 4v10l2 5 5 2 3 1 83 1 4 10 8 22 13 27 12 19 10 15 10 13 12 14 13 13v2l4 2 12 11 18 13 22 14 14 8 28 12 5 2-2 4-15 7-24 9-31 11-42 12-28 7-31 6-36 5-15 1h-24l-20-1-30-4-20-4-22-7-16-7-19-10-18-12-13-11-17-17-12-16-14-20-18-27-17-28-12-20-12-23-15-32-10-27-7-25-5-26-3-25-1-17v-24l2-29 5-37 6-28 10-36 22-66 12-44 7-23 8-21 7-15 10-18 8-12 8-10 9-10 12-12 13-9 16-9 21-8 25-6z" fill="#D2E8FA"/>
<path transform="translate(1095,86)" d="m0 0h19l19 1 26 4 23 7 20 9 14 8 19 14 13 12 10 11 10 14 7 14 4 13 2 17v12l-3 27-7 30-8 30-3 14-2 15-1 25 2 32 3 25 4 16 9 21 9 17 14 23 9 15 10 18 8 16 9 20 10 26 8 29 4 27v40l-3 19-6 20-6 15-8 15-12 18-8 10-11 12-7 7-16 12-23 11-20 6-22 4-11 1h-19l-42-4-36-6-36-7-52-11-30-5-15-5-4-3h2l2-6 12-21 9-19 9-24 7-23 5-26 3-31v-27l-3-31-5-26-8-28-8-21-15-30-12-19-14-19-13-15-7-7-6-7-8-7-10-9-18-13-19-12-22-12-22-10-24-8-22-5-16-3-3-1-1-10 1-19 1-1 37-1 6-4 3-5v-65l-6-7-89-2 4-2 36-12 33-13 24-11 31-15 33-15 41-18 27-11 45-17 36-12 19-5 25-4z" fill="#D2E8FA"/>
<path transform="translate(701,423)" d="m0 0h5l1 1 1 32 3 7 4 4 7 1 7-3 4-6 1-3 1-33h8l25 5 28 8 15 6 2 1-1 5-13 24-2 5 1 7 2 5 10 3 8-3 6-8 13-22h3l11 8 11 9 11 10 7 8 11 14 4 6v3l-25 14-5 4-3 7 1 7 3 5 5 2h9l24-13 5-3 5 8 8 22 6 25 3 20v4l-35 1-6 3-3 4-1 8 4 8 6 3 34 1 1 1-1 12-5 26-7 22-7 17h-4l-23-13-6-3-9 1-5 5-2 8 3 7 9 7 21 12-1 4-10 14-15 16-10 10-13 10-6 4-4-1-11-20-7-10-4-2h-8l-6 4-3 7 1 7 8 15 7 13-1 4-30 11-19 5-21 3h-7l-1-34-4-8-6-3-8 1-6 4-2 8v29l-1 3-14-1-16-3-23-6-24-9-2-3 6-11 9-15 2-9-3-7-4-4-2-1h-8l-6 4-9 15-7 12-1 3-4-1-13-10-10-9-7-6v-2l-3-1-7-8-10-13-4-5 1-5 18-10 11-8 2-3v-9l-3-6-5-3h-7l-14 7-16 10-5-5-8-21-5-17-4-20-1-7v-9l34-1 6-3 3-3 1-3v-9l-3-5-2-2-4-1-35-1v-8l5-28 8-26 8-17 5 2 21 12 4 2h8l6-3 3-4v-10l-6-7-23-13-3-2 1-5 10-13 11-12 6-7 8-7 18-14h4l14 24 6 7 3 1h7l6-3 3-4 1-6-5-12-11-19v-4l19-8 24-7 20-4z" fill="#FDFDFD"/>
<path transform="translate(709,395)" d="m0 0h24l27 3 17 4 25 8 16 6 17 8 15 9 11 7 14 11 24 24 9 11 9 12 11 17 8 15 11 28 4 15 4 20 3 19 2 20v10l-3 28-4 18-3 11-7 21-10 23-7 11-3 6-9 14-6 8-3 5h-2v2h-2l-2 4-6 7h-2v2l-8 7h-2v2h-2v2l-19 14-5 4-7 4-17 10-9 4-11 5-13 5-26 7-15 3-19 2-24 1-26-2-26-5-20-6-22-9-19-10-11-7-15-11-15-12-5-5-1-3-3-1-5-6v-2h-2l-9-11-7-9-9-13-12-20-8-16-9-25-4-17-4-24-1-10v-28l4-28 7-27 9-25 12-25 10-16 9-12 8-10 9-10 9-9 11-9 10-8 19-13 18-10 19-8 18-6 26-6 16-2zm-8 28-20 3-20 5-21 7-12 6 2 5 12 21 3 8-1 6-4 5-5 2h-7l-5-3-7-10-8-14-3-5-5 1-18 14-11 10-7 8-12 14-5 8v3l21 12 8 6 3 4v10l-4 5-5 2h-8l-17-9-11-7h-2l-8 17-8 26-5 28v8l35 1 5 2 3 3 1 3v9l-3 5-4 3-3 1-34 1v9l4 22 5 19 7 19 4 8 3 2 13-8 14-8 3-1h7l5 3 3 6v9l-4 5-18 11-10 6 1 5 10 13 9 10 2 3h2l2 4 8 7 9 8 11 8 4 1 12-22 7-10 4-2h8l5 3 3 5 1 6-3 8-6 10-6 11-2 5 5 3 21 8 27 7 19 3h7l1-4v-28l2-8 6-4 8-1 7 4 3 7 1 34 15-1 22-4 24-8 16-6 1-4-9-17-7-14 1-7 4-6 4-2h8l5 3 8 13 10 17 4-1 14-10 12-11 11-11 9-11 8-11-1-4-23-13-7-6-2-8 3-8 4-3 9-1 10 5 20 12 3-1 9-22 6-22 4-21 1-12-1-1-34-1-7-4-3-7 1-8 4-5 5-2 35-1-2-19-6-26-7-21-6-12h-3l-27 15h-9l-6-3-3-7 1-8 5-5 9-6 18-10-1-5-10-13-9-10-5-6-8-7-12-10-11-8-4 4-8 14-7 11-6 4-5 1-9-3-2-5-1-7 8-16 8-14v-4l-14-6-27-8-23-5-6-1h-8l-1 33-4 8-5 3-5 1-7-2-4-6-1-4-1-32-1-1z" fill="#1F4077"/>
<path transform="translate(704,362)" d="m0 0h24l18 1 22 3 40 10 20 8 16 8 18 10 21 14 13 10 15 13 8 8v2h2l18 22 7 10 8 14 6 10 9 20 5 12 6 18 8 36 3 21 1 18v11l-2 20-4 26-7 28-7 18-4 9-5 12-5 9-8 13-6 9-5 8h-2l-2 4-10 13-9 10-8 8-8 7-4 2-1 3-21 15h-3l-1 3-12 7-3 2h-3v2l-5 3-8 3-11 5-17 7-16 5-13 4-14 3-18 2-14 2h-22l-25-2-25-4-12-3-14-4-13-4-11-5-12-5-12-6-13-8-9-5-10-7-16-13-5-4-14-14-7-9-5-5-14-20-13-21-9-17-10-25-7-23-3-14-3-19-2-27v-13l2-26 4-24 5-20 9-27 11-23 12-20 13-18 11-13 8-10h2l2-4h2l1-3 8-7 11-10 6-4 10-8 15-9 18-10 20-9 30-10 21-5 23-3zm5 33-22 2-17 3-24 6-21 8-17 8-18 11-12 9-14 11-15 14-7 7-11 14-12 17-10 18-10 22-9 27-5 20-4 28v28l3 23 4 20 6 20 7 18 11 20 11 17 10 14 10 11 1 2h2l2 4 4 5h2l2 4 16 14 18 13 13 8 19 10 26 10 19 5 21 4 31 2 28-2 21-3 23-6 15-5 16-7 16-8 10-6 11-7 13-10 7-5v-2h2v-2l4-2 6-5v-2l4-2 6-7v-2h2v-2h2l6-9 7-10 7-11 6-11 5-10 8-19 7-21 5-21 3-21 1-12v-10l-3-26-4-23-3-15-7-21-10-23-8-14-13-19-11-13-9-10-6-7-8-7-9-8-11-8-18-11-15-8-20-8-21-7-24-6-27-3z" fill="#2366A8"/>
<path transform="translate(719,500)" d="m0 0 8 1 5 5 3 6 1 80 10 6 8 8 7 11 3 1h64l6 3 4 6 1 8-7 8-7 2h-65l-2 5-8 11-10 7-11 4h-17l-12-5-9-7-7-10-4-10-1-9 2-13 5-10 8-9 10-6 2-1 1-80 3-7 5-4z" fill="#1F4077"/>
<path transform="translate(659,251)" d="m0 0h124l1 2v25l-1 1h-123l-2-4v-22z" fill="#F8FBFD"/>
<path transform="translate(711,307)" d="m0 0h20l4 2v23l-2 2h-24l-2-1v-24z" fill="#2366A8"/>
<path transform="translate(716,620)" d="m0 0h10l5 4 3 7v5l-2 3h-2v2l-6 3-10-1-5-5-2-4 1-7 5-5z" fill="#2366A8"/>
</svg>
