<?xml version="1.0" encoding="UTF-8"?>
<svg version="1.1" viewBox="0 0 1352 1336" width="338" height="334" xmlns="http://www.w3.org/2000/svg">
<path transform="translate(330,58)" d="m0 0h32l28 2 24 3 25 6 25 7 37 12 26 10 30 10 23 5 31 4 11 1h50l46-4 64-6 15-1h44l25 4 18 5 17 9 14 10 9 8 10 13 10 17 8 20 7 25 4 22 2 20 1 21 1 73 2 34 6 45 5 27 6 26 10 30 9 20 10 20 12 19 13 16 12 13 10 10 8 7 12 11 11 8 19 14 14 11 16 12 15 13 8 7 18 18 7 8 11 15 12 21 10 21 7 19 6 21 5 24 3 20 2 31v26l-2 25-4 26-6 25-8 27-9 22-12 25-8 14-10 14-9 10-1 9-1 106-2 11-6 10-8 9-10 6-10 4-11 2-131 1h-646l-14-1-5-3-10-19-22-55-8-19-2-5-5 2-21 8-25 9-24 6-26 3h-17l-19-3-18-6-17-9-14-10-13-12-10-10-10-15-7-15-5-17-2-11-1-13v-16l2-22 5-27 10-34 11-32 13-35 15-37 19-48 11-28 9-26 11-35 7-29 4-27 1-16v-22l-2-31-4-24-7-26-11-30-12-24-13-23-21-41-8-21-7-27-3-21v-50l3-29 7-36 8-26 15-33 12-22 14-19 8-10 9-10 12-12 8-7 18-14 17-11 16-8 15-6 16-6 23-7 23-4z" fill="#1F3F78"/>
<path transform="translate(330,58)" d="m0 0h32l28 2 24 3 25 6 25 7 37 12 26 10 30 10 23 5 31 4 11 1h50l46-4 64-6 15-1h44l25 4 18 5 17 9 14 10 9 8 10 13 10 17 8 20 7 25 4 22 2 20 1 21 1 73 2 34 6 45 5 27 6 26 10 30 9 20 10 20 12 19 13 16 12 13 10 10 8 7 12 11 11 8 19 14 14 11 16 12 15 13 8 7 18 18 7 8 11 15 12 21 10 21 7 19 6 21 5 24 3 20 2 31v26l-2 25-4 26-6 25-8 27-9 22-12 25-8 14-10 14-9 10-1 9h-1l-1-11-4-10-8-10-11-7-17-8 1-10 9-40 10-43 11-44 4-17 5-23 1-16-3-7-4-3-3-1h-320l-6 3h-2l-3 9-5 16-1 11-6 19-6 29-4 16-5 21-7 31-6 23-4 18-1 2-4-2-6-5-1-4 3-15v-81l-4-14-6-9-7-8-14-7-7-2 1-8 7-24 4-15 3-8 5-2 17-2 25-6 17-7 11-6 11-7 13-10 9-8 7-8 11-14 5-8 8-16 6-16 5-21 2-13v-25l-4-24-5-18-9-20-9-14-9-12-11-12-3-4 1-7v-14l-5-15-8-15-9-10-3-3 2-10 1-7v-19l-3-13-6-11-13-15-12-8-12-3-10-30-8-13-10-9-15-8-11-3-14-1-9 1-5-6-8-11-9-8-16-8-13-4h-16l-21 7-5 3-7-1-11-7-8-4-7-1h-25l-10 3-14 8-10 9-7 9-7-1-16-1-13 2-12 5-9 5-10 9-7 10-6 14-2 10-2 2-14 3-10 5-12 9-6 7-6 10-5 15-1 7v14l4 16 6 12 8 11 1 3v14l-1 33-1 13-14 14-7 10-6 18-1 8v19l4 14 5 10 8 11 10 11 14 7 9 3 3 9 5 19 5 12 7 16 4 6v8l-7 27-5 20-3 2-48 7-43 6-22 6-16 7-12 7-9 7-13 11-9 9-11 16-6 9-6 15-5 15-2 16v41l4 20 8 22 7 16 16 40 11 26 10 26 1 4-4 3-21 8-25 9-24 6-26 3h-17l-19-3-18-6-17-9-14-10-13-12-10-10-10-15-7-15-5-17-2-11-1-13v-16l2-22 5-27 10-34 11-32 13-35 15-37 19-48 11-28 9-26 11-35 7-29 4-27 1-16v-22l-2-31-4-24-7-26-11-30-12-24-13-23-21-41-8-21-7-27-3-21v-50l3-29 7-36 8-26 15-33 12-22 14-19 8-10 9-10 12-12 8-7 18-14 17-11 16-8 15-6 16-6 23-7 23-4z" fill="#D1E7FD"/>
<path transform="translate(863,898)" d="m0 0h277l2 4-3 16-11 45-3 16-20 80-3 11-2 2-10 1h-18l-13 2-12 5-10 9-7 10-4 9-3 15v89l1 22-2 2h-240l1-10 14-63 11-42 8-32 7-32 9-37 11-45 10-42 5-23 3-10z" fill="#3379AB"/>
<path transform="translate(386,875)" d="m0 0h4l7 21 4 14 8 16 8 12 14 15 7 6 14 9 17 7 21 5 7 1h11l21-3 16-5 15-8 13-8 4-3h2v-2h2l-1 5-10 21-5 13-6 13-5 12-7 16-8 20-11 27-6 13-9 21-5 11-11 26-5 10-4-1-6-14-11-27-6-12-12-30-4-6-8-3-7 2-7 6-2 5v8l6 14 7 15 5 12 6 14 6 16 5 12 5 13 7 16 1 7-6 13-6 12-3 3-40 1h-53l-11-1-5-8-10-25-10-27-5-12-4-9-14-32-17-42-16-40-7-18-5-19-1-11 1-16 4-19 4-12 10-19 9-11 13-13 13-9 11-5 13-5 25-5z" fill="#3379AB"/>
<path transform="translate(577,367)" d="m0 0 11 1 11 6 13 13 5 2h7l8-6 10-7 5-2 7-1h11l10 3 8 7 6 9 2 5 2 8 5 5 6 2h6l8-3 17-1 8 3 10 7 5 8 2 9v23l2 5 5 3v2l17 1 12 5 8 7 6 12 1 10-4 13-7 14 1 6 4 8 10 7 8 6 6 7-1 4-12-6-24-7-26-3h-15l-23 2-13 3h-9l-24-6-17-5-15-4-21-6-35-9-24-6-5-1h-8l-22 13-19 12-15 9-17 10-17 11-9 5h-22l-1-4 2-37v-16l-5-10-7-7-8-14v-15l6-12 10-9 7-4 23-2 6-4 3-4 1-11v-8l4-10 6-8 5-5 15-4 12 1 15 7 6-1 6-3 5-8 5-10 6-7 14-7z" fill="#8AB5DE"/>
<path transform="translate(753,581)" d="m0 0 18 1 25 6 12 5 16 9 16 12 8 8v2h2l10 14 9 15 8 19 3 16 1 10v12l-2 23-3 11-6 16-9 16-12 16-10 10-10 7-16 9-15 6-14 5-15 2h-19l-22-3-16-5-12-5-14-8-11-9-14-14-12-17-8-16-6-16-3-11-1-7v-19l2-15 8-27 8-16 8-12 12-13 10-9 15-10 17-9 16-5 15-3z" fill="#1F3F78"/>
<path transform="translate(562,552)" d="m0 0 11 1 36 9 14 4 7 3 22 5 13 4v4l-12 9-11 11-9 11-3 3-2 5h-2l-2 5-9 17-4 12-5 12-3 17-1 13v21l3 25 5 15 6 16 11 19 7 9 9 10 7 8 2 4 4 2v2l-18 5-18 4-11 1h-19l-16-2-28-8-18-9-9-6-11-8-10-9-10-11-6-8v-3h-2l-6-11-7-12-5-14-4-14-2-24v-16l2-21 7-27 4-16 4-10 9-8 15-9 20-13 19-11 10-7z" fill="#FBFCFD"/>
<path transform="translate(637,917)" d="m0 0h7l7 3 4 5 4 16 5 5 3 1 67 1 9 2 6 5 3 5v4l-28 1-6 3-5 10 1 7 5 7 2 1 24 1 7 1 1 1v12l-1 1-33 1-4 5-2 9 3 7 2 4 5 2 28 2 1 5-5 4h-2v2l-11 4-50 11-13 4-5 3-3 5-6 28-4 26-7 43-3 13-4 31-3 17-1 1h-140l1-7 7-16 6-12 4-12 5-10 6-16 4-9 15-36 6-13 5-12 4-9 3-6 3-10 12-26 11-27 8-19 4-10 8-19 7-16 4-9 7-17 7-6z" fill="#FBFCFD"/>
<path transform="translate(753,581)" d="m0 0 18 1 25 6 12 5 16 9 16 12 8 8v2h2l10 14 9 15 8 19 3 16 1 10v12l-2 23-3 11-6 16-9 16-12 16-10 10-10 7-16 9-15 6-14 5-15 2h-19l-22-3-16-5-12-5-14-8-11-9-14-14-12-17-8-16-6-16-3-11-1-7v-19l2-15 8-27 8-16 8-12 12-13 10-9 15-10 17-9 16-5 15-3zm-16 48-20 3-17 5-16 8-14 10-11 10-5 5-6 9 3 14 8 23 11 18 8 10 13 13 15 11 12 6 14 5 19 5 6 1h22l18-4 15-5 16-8 11-7 11-9 7-7v-2h2l5-9v-8l-7-21-12-23-10-13-10-10-13-10-14-8-21-8-15-3-6-1z" fill="#3379AB"/>
<path transform="translate(753,1079)" d="m0 0h5l9 9 7 8 6 5-1 11-5 23-20 84-3 16-1 1h-83l-1-4 11-64 5-27 4-24 5-21 5-3 42-10z" fill="#3379AB"/>
<path transform="translate(473,817)" d="m0 0 4 1 11 10 8 5v2l6 2 2 1v2l4 1 9 6 17 8 10 3 7 3-1 6-4 10v9l8 9 8 6 7 6 4 4-4 7-3 4h-2l-2 4-7 7-9 5-6 4-16 6-9 2h-24l-13-4-13-5-10-6-12-12-10-14-4-11-2-3-3-11-1-12 4-2 18-2 9-3 5-3 4-7 6-25z" fill="#FBFCFD"/>
<path transform="translate(1102,1102)" d="m0 0h16l16 2 4 2v2l4 2 5 6 1 2 1 34-1 69-3 5-7 6-2 3-3 1h-66l-6-4-6-8-1-3v-8l2-1 28-1 5-2 4-5 1-2v-10l-1-4-4-2-3-2-32-1-1-3v-20l2-3 29-1 6-4 4-7v-9l-4-5-7-4-28-1-1-1v-7l4-7 7-6 6-2z" fill="#F9FBFD"/>
<path transform="translate(707,667)" d="m0 0 5 1-1 4-2 6v12l7 20 6 8 8 8 5 4 10 5 5 1h22l10-3 10-6 12-11 7-11 3-6h4l6 9 5 10v10l-3 5-6 4h-3l-1 3-16 8-13 4-6 1h-27l-14-3-20-9-11-8-7-7-2-5-3-1-8-13-7-15-1-5 5-5 14-11z" fill="#F6F9FC"/>
<path transform="translate(980,706)" d="m0 0h58l11 4 3 3 1 3v10l-4 6-5 4-4 1-55 1-29-1-6-4-4-6-1-6 3-7 4-5 8-2z" fill="#20437B"/>
<path transform="translate(546,581)" d="m0 0h27l16 6 8 6 7 7 9 14v8l-6 8-6 3h-11l-3-3-10-14-8-3-11-1-16 6-8-1-4-2-4-8-1-5 3-11 6-5z" fill="#204079"/>
<path transform="translate(669,855)" d="m0 0 3 1-1 6-4 15-3 14-11-2-7-1h-13l-16 4-8 5-5-1-13-10-10-8-1-1v-8l4-1h19l21-2 23-4z" fill="#CEE5FC"/>
<path transform="translate(959,778)" d="m0 0 7 1 23 11 19 10 6 7 2 4-1 8-7 8-4 2h-8l-23-11-18-10-7-6-2-5 1-9 5-7z" fill="#204179"/>
<path transform="translate(996,614)" d="m0 0 10 1 4 4 5 10-1 4-3 6-7 6-21 11-16 8-3 1h-9l-8-7-2-4v-9l7-8 22-12 12-6z" fill="#20427A"/>
<path transform="translate(1023,896)" d="m0 0h110l9 1 2 1-1 9-3 16-5 18-10 44-8 35-1 1-3 15-4 18-5 18-4 2-35 1-8 3-9 5-3 2h-3l-2 4h-2l-1 3h-2l-2 5-5 10-2 16v113l-2 1h-243v-7l3-13h1l-1 9-2 10 160-1h80l1-1-1-22v-89l3-15 7-14 9-10 6-5 12-5 13-2h19l9-1 2-3 4-16 15-61 5-21 3-14 7-29 5-25-1-3h-277l-2 1 1-3z" fill="#28528B"/>
<path transform="translate(762,662)" d="m0 0 8 2 6 3 7 8 1 3v9l-3 9-6 7-9 4h-8l-8-4-6-5-4-9v-10l4-8 5-4 10-4z" fill="#3379AB"/>
<path transform="translate(871,113)" d="m0 0 10 2 16 8 14 9 11 9 10 12 8 13 8 16 8 24 5 22 1 12-3-3-2-7-5-6-4-12-3-4-8-20-5-8-8-16-10-15-6-5-5-5-6-7-1-3-9-3-9-4-1-3-7-1-1-4z" fill="#D4EFFE"/>
<path transform="translate(704,855)" d="m0 0 18 3 5 2-1 8-7 26-4 17-2 6h-20l-4-2 4-19 9-34z" fill="#3379AB"/>
<path transform="translate(434,612)" d="m0 0h6l1 3-4 10-3 10-4 21-2 7-3 22-5-1-10-14-4-7-1-5v-14l3-9 9-12 8-8z" fill="#F5F8FC"/>
<path transform="translate(554,630)" d="m0 0h11l5 3 4 5v11l-4 16-6 7-3 2h-8l-7-2-5-9v-8l3-17 5-6z" fill="#21417A"/>
<path transform="translate(893,787)" d="m0 0 2 2 2 1-2 5-6 11-5 4-9 11-14 14-10 7-11 6-15 8-11 4-12 4-4-1 7-3 1-2-2-2h4l1-3 20-9 16-10 13-10 9-8 7-8 9-11 5-4 3-5z" fill="#D1ECFD"/>
<path transform="translate(386,473)" d="m0 0h1v19l4 16 6 12 8 11 1 3v14l-1 33-1 13-4 4-5-5 3-9v-45l-4-9-4-6-5-12-3-9-2-11 1-7 2-5h1z" fill="#CAE2FA"/>
<path transform="translate(1e3 530)" d="m0 0h2l13 26 12 19 10 13 1 10-3-2 2 4 4 5 1 3 2 1 2 4 3 1 3 5h-3l-8-8-7-8-6-5-10-13-8-21-6-8-3-11-4-8 2-5z" fill="#D4EFFE"/>
<path transform="translate(297,904)" d="m0 0 2 1-13 13-9 13-8 16-4 13-3 16-1 18 2 13 5 17 6 16 16 40 20 49 11 25 8 20 5 12 3 8-1 3-3-6-6-16-6-13-4-8-6-15-3-7-5-13-4-9-7-16-4-9-4-11v-4h-2l-7-19-3-6-4-10-6-17-4-19v-21l3-17 4-15 7-12 8-13h2l2-4z" fill="#28528B"/>
<path transform="translate(1181,732)" d="m0 0 5 3 8-2 4 4 6 10 2 5 4 1 13 27 7 20h-4l-5-5-1-9-6-3-1-1v-5h-2l-9-14-12-15-7-12z" fill="#D4EFFE"/>
<path transform="translate(371,845)" d="m0 0h8v1l-35 5-22 6-16 7-12 7-9 7-13 11-9 9-11 16-6 9-6 15-5 15-2 16v41l4 20 8 22 2 4-1 3-5-11-7-19-3-15-1-8v-37l4-22 10-25 11-17 8-11 11-11 11-9 15-10 17-8 25-7z" fill="#8AB5DE"/>
<path transform="translate(773,863)" d="m0 0h5l3 3 5 1v1h-12l-7 6-4 10-5 21v8l5 5-5-1-5-6v-2l-5 1 2-9 2-14 2-9 4-3 5 1 3-9 1-2-3-1z" fill="#D4EFFE"/>
<path transform="translate(439,1066)" d="m0 0 8 2 5 4 5 10 6 17 12 27 8 19 6 14h3l14-32 5-13 6-12 8-19 2-4 1 3-9 21-2 5-5 12-3 8-12 26-5 9h-3l-7-14-5-12-6-15-6-12-10-25-4-9v-2h-2l-1-4h-12l-6 4-3 6 1 10 1 3-2 2-3-7v-8l3-6 7-6z" fill="#28528B"/>
<path transform="translate(1013,640)" d="m0 0 3 1-1 5-5 6-8 4-3 3-15 7-9 4h-6l2-1 1-4-3-1 14-7 7-6 12-6h5v3h2v-6z" fill="#D3EEFE"/>
<path transform="translate(970,774)" d="m0 0 9 3 9 4 12 7v2l5 1 9 7 1 4-3 4-4-5-16-8-23-12-3-2 3-3z" fill="#CBE3FB"/>
<path transform="translate(866,581)" d="m0 0 4 1 2 9 7 10 5 5 1 6-1 2 4 5 4 7 3 6-1 3-9-15-10-13-11-12-3-4 1-7z" fill="#CAE3FA"/>
<path transform="translate(1017,815)" d="m0 0 5 1-1 9-6 5-5 5-5 3-11 1-9-2-16-8-10-6-4-3 1-2 15 9 6 2 9 4 9 1 11-1 1-5 6-5z" fill="#D5F0FF"/>
<path transform="translate(864,567)" d="m0 0 4 2-1 6 4 4 3 12 8 10 7 9 7 11 5 9v5l-3 1-3-1-4-9-6-9-2-4 1-4-3-5-6-7-5-8-1-7-4-1z" fill="#D4EFFE"/>
<path transform="translate(472,1200)" d="m0 0 2 2-1 9-8 18-5 7-3 1h-102l-5-5-3-6 1-3 6 11 19 1h47l38-1 5-7 8-18 1-4z" fill="#28528B"/>
<path transform="translate(954,857)" d="m0 0h33l18 1 4 2-4 2-20 2h-31v-1l13-1 3-1 7 1 1-2-37-1v-1z" fill="#D5F0FF"/>
<path transform="translate(808,593)" d="m0 0 5 1 13 8 8 4 1 3 5 2 14 14 10 16 1 4h2l5 10 4 10 4 13v10h-1l-3-16-6-15-9-16-9-13-2-4h-2l-7-8-11-9-16-10-6-3z" fill="#28528B"/>
<path transform="translate(938,164)" d="m0 0 4 5 7 16 7 21-1 3v-2l-4-1-3-9-6-14-3-2-3-8z" fill="#D2E9FE"/>
<path transform="translate(428,1095)" d="m0 0 3 3 8 17 8 18 9 24 11 27 4 11-1 3-8-19-6-15-3-7-7-19-8-18-5-12-5-10z" fill="#28528B"/>
<path transform="translate(392,528)" d="m0 0 5 5 2 6v45l-3 9v2l3 1-5 5h-2l1-8 2-7v-50l-3-6z" fill="#D5F0FF"/>
<path transform="translate(787,995)" d="m0 0 3 3 1 9 1 7 10-5v10l-3 8h-3l-1-4-5-1v-2l-2-1h2l-2-7v-11z" fill="#D1ECFD"/>
<path transform="translate(503,358)" d="m0 0h6l1 6-18 2-9 3h-3v-3l-3-1 2-2 13-4z" fill="#CFEAFC"/>
<path transform="translate(238,941)" d="m0 0 1 4-2 5-2 13-1 19v18l1 15 3 14v3h2l5 17 1 5-3-4-8-23-3-17v-41l2-16z" fill="#3278AA"/>
<path transform="translate(669,855)" d="m0 0 3 1-1 6-3 10-5-3-6-3v-2l-3-1 1-1-2-2z" fill="#CAE3FA"/>
<path transform="translate(657,334)" d="m0 0h5l1 5-5-2-5 1-3 1v2l-10 3h-5l1-3h-16v-1l25-5z" fill="#D1ECFD"/>
<path transform="translate(869,859)" d="m0 0h14l12 1h7l6 2v1l-39 1-8-1v-3z" fill="#D5F0FF"/>
<path transform="translate(582,868)" d="m0 0 10 1-2 1 4 13-1 2h-3l-9-7-1-1v-8z" fill="#CCE4FB"/>
<path transform="translate(443,775)" d="m0 0 4 1 3 5v8l-5 19h-1v-9l-1-8-1-12z" fill="#C8E5F9"/>
<path transform="translate(817,915)" d="m0 0 1 4-5 19v16 2l1 5-1 10-1 2-4-2-1-4 3-19 2-16z" fill="#D1ECFD"/>
<path transform="translate(714,362)" d="m0 0 9 6 4 1 16 1 3 2-6 2-2 2h-17l-1-6-6-6z" fill="#D5F0FF"/>
<path transform="translate(1102,1102)" d="m0 0h16l16 2 4 3-10-2h-24l-39 1 2-2 4-1z" fill="#BAD9F3"/>
<path transform="translate(665,877)" d="m0 0h1l-1 11-1 3-11-2-7-1v-1l5-1 2-3h2v-2l5-2h5z" fill="#C8E1F9"/>
<path transform="translate(386,454)" d="m0 0h1l-1 7-2 9h3l-1 5-1 14h-1l-1-6-2 4 1 10 1 11-2-3-2-10v-13l2-7 3-16z" fill="#D4EFFE"/>
<path transform="translate(764,862)" d="m0 0h9v2l-6 1-2 8-4 4-4-1-2 1 3-12 2-2z" fill="#C5DFF8"/>
<path transform="translate(590,870)" d="m0 0 3 1 6 11 6 3 9 3-2 5-5-4-9-2-4-2-4-11zm2 14 2 2h-2z" fill="#D4EFFE"/>
<path transform="translate(594,885)" d="m0 0h4v2l9 1 6 5-4 4-5-1-12-9z" fill="#C6E0F9"/>
<path transform="translate(886,797)" d="m0 0h5l-1 4-4 4-6 5-6 1v-3l8-10z" fill="#CBE3FB"/>
<path transform="translate(567,332)" d="m0 0h14l-2 2 1 2-19 3-6 1-1-5 11-2z" fill="#D0EBFD"/>
<path transform="translate(782,1048)" d="m0 0 6 1 3 6-1 4-5 1-5-1-1-4 1-5h2z" fill="#F5F9FC"/>
<path transform="translate(271,1127)" d="m0 0h3l6 17-3 1-2 3-5-15z" fill="#D5F0FF"/>
<path transform="translate(987,780)" d="m0 0 6 2 15 9 8 6 3 5v5l-4-1-2-3 1-5-4-2-5-4-2 1v-3h-3v-2l-5-2-8-5z" fill="#D5F0FF"/>
<path transform="translate(1009,547)" d="m0 0 3 3 9 16 1 2-6-1-3-6-1-5-5-2-1-5z" fill="#D2E8FE"/>
<path transform="translate(809,978)" d="m0 0v3l-2 3v12l-3 9-2 1-1-7 1-2 2-14 2-4z" fill="#CFEBFC"/>
<path transform="translate(1161,712)" d="m0 0 5 1 3 2v2l6 1 5 4-1 4 2 6-5-5-5-4-7-8z" fill="#D4EFFE"/>
<path transform="translate(654,861)" d="m0 0 2 1-1 1 5 4 7 3v7h-2v2l-8 2 5-5-2-7-4-2-4-3v-2z" fill="#D2EDFD"/>
<path transform="translate(893,787)" d="m0 0 2 2 2 1-2 5-3 6-2-1 1-3-7 2-1-2 5-4 3-5z" fill="#D4EFFE"/>
<path transform="translate(1e3 791)" d="m0 0 8 6 2 1 1 4-3 4-4-5-6-4 2-4z" fill="#C8E1F9"/>
<path transform="translate(539,343)" d="m0 0 5 5-12 9v-4l-2-1z" fill="#CAE6FA"/>
<path transform="translate(980,741)" d="m0 0h22l3 1v2l-5 1h-8l-7-1h-3z" fill="#D4EFFE"/>
<path transform="translate(443,775)" d="m0 0 4 1 3 5v8l-5-3-2-1-1-6z" fill="#C8E0F9"/>
<path transform="translate(438,825)" d="m0 0h1v7l-2 5-7 2-15 1v-1l13-2 1-2 7-2z" fill="#B1D0EF"/>
<path transform="translate(1054,1118)" d="m0 0h1v5l26 1v2h-26l-1-1z" fill="#B2D3EF"/>
<path transform="translate(436,824)" d="m0 0h2l-1 7-4 4h-7l4-5h2l2-4z" fill="#D5F0FF"/>
<path transform="translate(1140,1061)" d="m0 0 4 1 3 9-4 2-3-3v-3l-2-1z" fill="#D4EEFE"/>
<path transform="translate(828,881)" d="m0 0h5l-2 3h-2l1 8-6 2-2 5-1-3 4-9 2-5z" fill="#D5F0FF"/>
<path transform="translate(784,1044)" d="m0 0h7l2 2-1 9h-2l-2-5-5-2z" fill="#D4EFFE"/>
<path transform="translate(817,915)" d="m0 0 1 4-5 19v16l-3 1 1-18 5-20z" fill="#D5F0FF"/>
<path transform="translate(911,739)" d="m0 0 3 3 2-1-2 9-1-2-4 2-2 2v-6l2-2z" fill="#D4EFFE"/>
<path transform="translate(879,611)" d="m0 0h2v2l3 1 4 5 4 7 3 6-1 3-9-15-6-8z" fill="#B4D3F0"/>
<path transform="translate(428,416)" d="m0 0 2 1v3 4l-8 1-2-5z" fill="#D2EDFD"/>
<path transform="translate(234,1020)" d="m0 0h2l2 12h2l5 17 1 5-3-4-8-23z" fill="#3173A6"/>
<path transform="translate(427,721)" d="m0 0 1 3h2l1 6 2 3 1 10-1 4-6-22z" fill="#2B5F96"/>
<path transform="translate(965,772)" d="m0 0h6l9 4 7 3-3 1-13-5-3 1-2 2-2-4z" fill="#D5F0FF"/>
<path transform="translate(1148,1078)" d="m0 0 6 2 11 8 4 5-1 2-8-8-7-5-5-2z" fill="#3275A8"/>
<path transform="translate(844,524)" d="m0 0 4 2 2 3v4l-3 1-4-3z" fill="#D4EFFE"/>
<path transform="translate(282,879)" d="m0 0 2 1-8 8-8 7-4 5h-2l2-4 12-12z" fill="#3379AB"/>
<path transform="translate(386,478)" d="m0 0h1l2 9 1 13-2 2-2-10z" fill="#2D6499"/>
<path transform="translate(790,1057)" d="m0 0 2 1-1 6-1 2-4-2-5-5h9z" fill="#C1DFF6"/>
<path transform="translate(246,1054)" d="m0 0 3 1 2 7 2 2 2 9 2 4-1 3-10-24z" fill="#306FA3"/>
<path transform="translate(1134,1068)" d="m0 0 1 4 9 3 4 3h-7l-8-5z" fill="#2D6499"/>
<path transform="translate(742,695)" d="m0 0 7 6 6 4 10 2v1h-8l-9-4-5-5z" fill="#28528B"/>
<path transform="translate(372,654)" d="m0 0h1l1 11 1 4h-2l-2 2-1-7 1-8z" fill="#D5F0FF"/>
<path transform="translate(955,211)" d="m0 0 3 3 2 12-5-5z" fill="#D3EAFE"/>
<path transform="translate(1135,1066)" d="m0 0 5 1 2 7-5-1-2-1z" fill="#BBD8F3"/>
<path transform="translate(435,768)" d="m0 0 6 4 2 3-1 7-2-3-5-9z" fill="#D4EFFE"/>
<path transform="translate(996,648)" d="m0 0 2 1-1 6-5 1-1-2-3-2z" fill="#C3DDF7"/>
<path transform="translate(1224,786)" d="m0 0 2 2 3 9-1 2-5-5z" fill="#D3E8FE"/>
<path transform="translate(992,645)" d="m0 0 4 1 2 2-10 5h-2l1-3z" fill="#2A5B92"/>
<path transform="translate(1020,581)" d="m0 0 5 1v3l4 1v3l1 3h-3l-3-5v-2l-3-1z" fill="#D2E8FE"/>
<path transform="translate(992,517)" d="m0 0 5 1 1 6-3 1-3-1z" fill="#D5EFFE"/>
<path transform="translate(986,653)" d="m0 0 2 1-10 7-5 2-4-1 16-8z" fill="#ACCDED"/>
<path transform="translate(669,855)" d="m0 0 3 1-1 6-1 3h-2v-7h-2v-2z" fill="#C0DEF6"/>
<path transform="translate(660,885)" d="m0 0h4v6l-6-1-2-1v-2z" fill="#CDE8FB"/>
<path transform="translate(407,711)" d="m0 0 6 1 11 5-4 1-12-5z" fill="#2D6399"/>
<path transform="translate(666,658)" d="m0 0 2 1-15 15v-3l4-5 8-7z" fill="#234881"/>
<path transform="translate(399,527)" d="m0 0 4 1 1 1v8l-4-4z" fill="#D2EDFD"/>
<path transform="translate(873,114)" d="m0 0 8 1 3 1-1 4h-4l-3-3z" fill="#D3E8FE"/>
<path transform="translate(285,1149)" d="m0 0h2v3h2l2 12-2-1-4-11z" fill="#2E679D"/>
<path transform="translate(816,850)" d="m0 0 2 1-1 5h-7l-1-3z" fill="#C6E0F9"/>
<path transform="translate(1009,619)" d="m0 0 4 5 2 5-1 4-2 3-1-4v-7l-2-3z" fill="#2F6EA2"/>
<path transform="translate(803,434)" d="m0 0 5 2 11 6-2 1-10-4z" fill="#D4EFFE"/>
<path transform="translate(1197,748)" d="m0 0 3 1 4 9-4-1-1-3-3-2z" fill="#D2E8FE"/>
<path transform="translate(743,731)" d="m0 0h8v2l3 1h-6l-2-1v2l4 1h-5l-4-3z" fill="#2F5C93"/>
<path transform="translate(312,893)" d="m0 0 2 1-14 10v-3l10-7z" fill="#28528B"/>
<path transform="translate(418,719)" d="m0 0h6v2h2v4l-6-2z" fill="#D4EFFE"/>
<path transform="translate(1063,1106)" d="m0 0h2l-2 4-7 7v-3z" fill="#CAE0F4"/>
<path transform="translate(750,895)" d="m0 0h1l-1 11-4 4 3-12z" fill="#B7D5F2"/>
<path transform="translate(754,878)" d="m0 0h1l-1 14-1 2h-2l2-12z" fill="#AFCFEE"/>
<path transform="translate(809,981)" d="m0 0 1 4-2 7-2-2v-6z" fill="#C4DEF7"/>
<path transform="translate(888,622)" d="m0 0 5 5 2 5-1 3-6-10z" fill="#BEDAF5"/>
<path transform="translate(1e3 531)" d="m0 0 3 3 2 6-4-1-1-1z" fill="#D2E8FE"/>
<path transform="translate(607,117)" d="m0 0 10 1v2l-5 2v-2l-5-1z" fill="#D5F0FF"/>
</svg>
