<svg width="88" height="40" viewBox="0 0 88 40" fill="none" xmlns="http://www.w3.org/2000/svg">
  <path d="M76.8338 6.3866C70.8226 6.3866 65.9323 11.2175 65.9323 17.6544V36.7144L71.5899 35.6835V29.4022C71.5899 29.4022 74.7948 28.8412 76.8338 28.4769C84.0695 27.1843 87.9007 22.926 87.737 16.8836C87.5585 10.2983 81.9217 6.3866 76.8338 6.3866ZM82.1823 17.3037C82.018 20.9238 79.5904 22.2673 76.6878 22.8067C73.8159 23.3403 71.5895 23.6835 71.5895 23.6835V17.2308C71.5895 14.4042 73.8785 12.0976 76.6878 11.986C79.6705 11.8675 82.3242 14.1745 82.1823 17.3037Z" fill="#6D36FB"/>
  <path d="M58.2735 11.4208V31.1575L63.842 30.1724V10.4311L58.2735 11.4208Z" fill="#6D36FB"/>
  <path d="M64.2571 5.88235C64.989 4.10559 64.1499 2.06862 62.3829 1.33266C60.616 0.596697 58.5903 1.44044 57.8584 3.2172C57.1265 4.99397 57.9656 7.03094 59.7325 7.7669C61.4995 8.50286 63.5252 7.65912 64.2571 5.88235Z" fill="#6D36FB"/>
  <path d="M45.6006 11.9816C44.1235 11.9808 42.6625 12.2909 41.3118 12.892C39.961 13.4931 38.7504 14.3719 37.7578 15.4719C36.7651 16.5719 36.0125 17.8686 35.5483 19.2787C35.0841 20.6888 34.9186 22.181 35.0625 23.6593C35.2064 25.1375 35.6565 26.5691 36.3837 27.862C37.111 29.1548 38.0994 30.2802 39.2853 31.1657C40.4712 32.0513 41.8283 32.6774 43.2693 33.0038C44.7103 33.3302 46.2033 33.3496 47.6523 33.0607L47.6516 33.0639L56.1724 31.532C56.1724 31.532 56.1829 22.763 56.1829 22.6227C56.1797 19.8015 55.0638 17.0967 53.0799 15.1018C51.096 13.1069 48.4062 11.9848 45.6006 11.9816ZM50.9365 27.3893L46.6348 28.1616V28.16C45.556 28.3743 44.4377 28.2482 43.4329 27.799C42.4281 27.3498 41.5859 26.5993 41.0215 25.6503C40.4571 24.7013 40.1981 23.6001 40.2799 22.4974C40.3617 21.3947 40.7803 20.3444 41.4785 19.4901C42.1767 18.6358 43.1203 18.0193 44.1803 17.725C45.2403 17.4306 46.3648 17.4728 47.4 17.8457C48.4352 18.2186 49.3306 18.904 49.9636 19.8082C50.5966 20.7124 50.9363 21.7911 50.9362 22.8969L50.9365 27.3893Z" fill="#6D36FB"/>
  <path d="M33.4164 13.6616C27.7547 14.0842 23.2753 18.8482 23.2753 24.6478V37.0606L28.8693 36.0726V24.6478C28.8693 22.0025 30.8801 19.73 33.4164 19.32V13.6616Z" fill="#6D36FB"/>
  <path d="M10.9092 18.0604C10.3897 18.0607 9.87088 18.0983 9.35671 18.173L9.35958 18.1712L9.31903 18.1786C9.08684 18.2129 8.85708 18.2546 8.62975 18.3037L5.56838 18.8591V10.8606L0 11.8518V29.0304C3.6534e-05 31.2 0.63988 33.3209 1.83862 35.1249C3.03736 36.9288 4.74115 38.3348 6.73455 39.1651C8.72795 39.9953 10.9214 40.2125 13.0376 39.7892C15.1537 39.3659 17.0976 38.3212 18.6232 36.787C20.1489 35.2528 21.1879 33.2982 21.6088 31.1703C22.0297 29.0423 21.8137 26.8367 20.988 24.8322C20.1623 22.8278 18.764 21.1145 16.97 19.9092C15.176 18.7038 13.0668 18.0604 10.9092 18.0604ZM10.8983 34.4112C9.47969 34.4067 8.1208 33.8365 7.11973 32.8258C6.11865 31.8151 5.55715 30.4463 5.55841 29.0198C5.55841 28.9489 5.56127 28.8787 5.56414 28.8084L5.57282 24.515L9.8827 23.7493V23.7509C10.6154 23.6067 11.3701 23.6184 12.0981 23.7851C12.8261 23.9518 13.5113 24.2698 14.1097 24.7188C14.7081 25.1678 15.2065 25.7378 15.5727 26.392C15.9389 27.0463 16.1649 27.7704 16.2361 28.5177C16.3074 29.2651 16.2222 30.0192 15.9863 30.7315C15.7503 31.4438 15.3687 32.0985 14.8659 32.6536C14.3632 33.2087 13.7505 33.6519 13.0673 33.9546C12.384 34.2573 11.6453 34.4128 10.8987 34.4112H10.8983Z" fill="#6D36FB"/>
  </svg>
