<svg width="116" height="40" viewBox="0 0 116 40" fill="none" xmlns="http://www.w3.org/2000/svg">
<path d="M31.9874 9.35046H37.3361L41.641 17.7106L45.92 9.35046H51.2686L44.0153 22.6638V29.7398H39.2407V22.6638L31.9874 9.35046Z" fill="#503296"/>
<path d="M54.3212 30.0281C53.3819 30.0281 52.521 29.8709 51.7904 29.5564C51.0599 29.2419 50.4859 28.744 50.0423 28.0888C49.6249 27.4336 49.4161 26.6212 49.4161 25.6253C49.4161 24.7866 49.5466 24.079 49.8597 23.5287C50.1467 22.9521 50.5641 22.4804 51.0599 22.1397C51.5556 21.7728 52.1557 21.5107 52.834 21.3273C53.5124 21.1438 54.2169 21.0128 54.9735 20.9604C55.8084 20.8817 56.5129 20.8031 57.0086 20.7245C57.5304 20.6459 57.8957 20.5148 58.1305 20.3314C58.3653 20.1741 58.4697 19.9383 58.4697 19.6238V19.5714C58.4697 19.0734 58.287 18.6803 57.9478 18.4182C57.6087 18.1562 57.139 17.9989 56.565 17.9989C55.9389 17.9989 55.4431 18.13 55.0518 18.4182C54.6604 18.6803 54.4256 19.0734 54.3212 19.5452L49.938 19.3879C50.0684 18.4707 50.4076 17.6582 50.9294 16.9506C51.4773 16.243 52.2079 15.6665 53.1732 15.2471C54.1125 14.8278 55.2605 14.6182 56.5911 14.6182C57.5304 14.6182 58.4175 14.723 59.2263 14.9589C60.0351 15.1947 60.7135 15.5092 61.3136 15.9285C61.9137 16.3479 62.3572 16.872 62.6964 17.501C63.0356 18.13 63.1921 18.8113 63.1921 19.6238V29.8185H58.7306V27.7219H58.6523C58.3914 28.2198 58.0522 28.6653 57.6348 29.006C57.2173 29.3467 56.7477 29.6088 56.1998 29.7923C55.6258 29.9233 54.9996 30.0281 54.3212 30.0281ZM55.7823 26.8832C56.3041 26.8832 56.7477 26.7784 57.1651 26.5687C57.5826 26.3591 57.8957 26.0708 58.1566 25.7039C58.3914 25.337 58.5218 24.9177 58.5218 24.4197V23.0045C58.3914 23.0832 58.2349 23.1356 58.0261 23.188C57.8435 23.2404 57.6348 23.2928 57.3999 23.3452C57.1651 23.3976 56.9303 23.4501 56.6955 23.4763C56.4607 23.5025 56.2258 23.5549 55.991 23.5811C55.5475 23.6597 55.1561 23.7646 54.843 23.9218C54.5299 24.079 54.2951 24.2625 54.1125 24.4984C53.9559 24.7342 53.8777 25.0225 53.8777 25.337C53.8777 25.8349 54.0603 26.2018 54.3995 26.4639C54.7909 26.7522 55.2344 26.8832 55.7823 26.8832Z" fill="#503296"/>
<path d="M66.897 29.766V14.5919H71.4107V17.5271C71.7238 16.6099 72.4021 15.9023 73.1588 15.3781C73.8893 14.854 74.7764 14.5919 75.794 14.5919C76.8376 14.5919 77.7247 14.854 78.4552 15.4043C79.1858 15.9285 79.6554 16.6623 79.8641 17.5534C80.1511 16.6623 80.8295 15.9547 81.6383 15.4043C82.4471 14.8802 83.3864 14.5919 84.5083 14.5919C85.9172 14.5919 87.0652 15.0374 87.9523 15.9547C88.8394 16.872 89.2829 18.1037 89.2829 19.6762V29.766H84.5344V20.7769C84.5344 20.0169 84.3518 19.4665 83.9604 19.0734C83.569 18.6803 83.0733 18.4706 82.4732 18.4706C81.8209 18.4706 81.2991 18.6803 80.9339 19.0996C80.5686 19.5189 80.3859 20.0955 80.3859 20.8031V29.7398H75.82V20.6982C75.82 19.9906 75.6374 19.4403 75.2721 19.0472C74.9069 18.6541 74.4111 18.4444 73.785 18.4444C73.3675 18.4444 73.0022 18.5492 72.6891 18.7327C72.3761 18.9424 72.1151 19.2044 71.9586 19.5713C71.776 19.9382 71.6977 20.3576 71.6977 20.8555V29.7136L66.897 29.766Z" fill="#503296"/>
<path d="M92.7531 35.3744V14.5919H97.4494V17.3437C97.6581 16.8982 98.0756 16.4526 98.4148 16.0333C98.78 15.614 99.2236 15.2733 99.7976 14.985C100.345 14.723 101.024 14.5919 101.807 14.5919C102.85 14.5919 103.816 14.854 104.703 15.4043C105.616 15.9547 106.32 16.7933 106.894 17.9203C107.442 19.0472 107.729 20.5148 107.729 22.2707C107.729 23.9742 107.468 25.3894 106.92 26.5425C106.399 27.6956 105.668 28.5343 104.755 29.1108C103.842 29.6874 102.85 29.9757 101.754 29.9757C100.998 29.9757 100.345 29.8446 99.7976 29.6088C99.2497 29.3729 98.78 29.0322 98.4148 28.6391C98.0495 28.246 97.7625 27.8005 97.5538 27.3287H97.4494V35.3744H92.7531ZM97.3972 22.2707C97.3972 23.0831 97.5016 23.7907 97.7103 24.3673C97.919 24.9701 98.2321 25.4418 98.6496 25.7563C99.067 26.097 99.5628 26.2542 100.137 26.2542C100.711 26.2542 101.206 26.097 101.624 25.7563C102.041 25.4156 102.328 24.9701 102.537 24.3673C102.746 23.7645 102.85 23.0569 102.85 22.2707C102.85 21.4583 102.746 20.7769 102.537 20.1741C102.328 19.5713 102.015 19.1258 101.624 18.8113C101.233 18.4968 100.711 18.3134 100.137 18.3134C99.5628 18.3134 99.067 18.4706 98.6496 18.7851C98.2321 19.0996 97.919 19.5713 97.7103 20.1479C97.5277 20.7507 97.3972 21.4583 97.3972 22.2707Z" fill="#503296"/>
<path d="M113.574 11.8401C112.895 11.8401 112.321 11.6043 111.852 11.1587C111.382 10.7132 111.147 10.1628 111.147 9.53387C111.147 8.90489 111.382 8.38074 111.852 7.93521C112.321 7.48969 112.895 7.28003 113.574 7.28003C114.252 7.28003 114.826 7.5159 115.296 7.93521C115.765 8.38074 116 8.90489 116 9.53387C116 10.1628 115.765 10.7132 115.296 11.1587C114.8 11.6043 114.226 11.8401 113.574 11.8401Z" fill="#503296"/>
<path d="M115.922 14.6443H111.173V29.766H115.922V14.6443Z" fill="#503296"/>
<path d="M18.368 29.8184C19.5942 29.8184 20.7161 29.4777 21.7076 28.875C22.2294 27.9577 22.5164 26.8832 22.5164 25.7301C22.5164 22.2183 19.6725 19.3617 16.1763 19.3617H12.6802V15.9547C12.6802 12.4429 9.83625 9.5863 6.34007 9.5863C5.16598 9.5863 4.04408 9.90079 3.1048 10.4774C2.58299 11.4208 2.2699 12.4953 2.2699 13.6485V23.1355C2.2699 26.6473 5.37471 29.8184 8.87089 29.8184H18.368Z" fill="#FA3296"/>
<path d="M18.368 29.8184H8.8709C5.37472 29.8184 2.26991 26.6473 2.26991 23.1355V13.6484C2.26991 12.4953 2.583 11.4208 3.10481 10.4773C1.25236 11.578 0 13.6222 0 15.9546V24.97C0 28.4818 3.52227 32.1246 7.01844 32.1246H16.1763C18.5506 32.1246 20.6118 30.8142 21.7076 28.8749C20.7162 29.4777 19.5682 29.8184 18.368 29.8184Z" fill="#503296"/>
<path d="M20.7161 27.5121H10.6189C7.12277 27.5121 4.53977 25.2321 4.53977 21.1437V11.3422C4.53977 10.1628 4.85286 9.06212 5.42686 8.11865C3.52223 9.21936 2.24377 11.2897 2.24377 13.6484V23.1355C2.24377 26.6473 5.34859 29.8184 8.84476 29.8184H18.3418C20.69 29.8184 22.7512 28.5604 23.8731 26.6735C22.9599 27.1977 21.8902 27.5121 20.7161 27.5121Z" fill="#C83296"/>
<path d="M24.7864 23.1617C24.6298 19.7548 21.8642 17.0554 18.4463 17.0554H14.9501V13.7271C14.9501 10.0842 11.9497 7.12279 8.32303 7.28003C6.07922 7.38486 4.14849 8.64282 3.10486 10.4773C4.04413 9.90078 5.16604 9.58629 6.34013 9.58629C9.8363 9.58629 12.6802 12.4429 12.6802 15.9547V19.3617H16.1764C19.6726 19.3617 22.5165 22.2183 22.5165 25.7301C22.5165 26.857 22.2295 27.9315 21.7076 28.8749C23.6123 27.7218 24.8646 25.5728 24.7864 23.1617Z" fill="#FA78B4"/>
<path d="M20.7161 14.7754H17.2199V11.3684C17.2199 7.85661 14.376 5 10.8798 5C8.55775 5 6.52266 6.25796 5.40076 8.14489C6.26176 7.64695 7.25321 7.33246 8.29684 7.28004C11.9235 7.1228 14.9239 10.0842 14.9239 13.7271V17.0554H18.4201C21.838 17.0554 24.6036 19.7548 24.7602 23.1617C24.8124 24.4459 24.4732 25.6514 23.8731 26.6735C25.7777 25.5728 27.0562 23.5024 27.0562 21.1438C27.0562 17.6058 24.2384 14.7754 20.7161 14.7754Z" fill="#FAA0C8"/>
<path d="M4.74858 9.76972C4.90513 9.16695 5.13995 8.61659 5.42695 8.11865C4.46158 8.66901 3.65277 9.48144 3.10486 10.4773C3.60058 10.1628 4.14849 9.92696 4.74858 9.76972Z" fill="#FAA0C8"/>
<path d="M22.3077 27.3026C22.1772 27.8529 21.9424 28.3771 21.6815 28.875C22.5947 28.3246 23.3513 27.5646 23.8732 26.6736C23.4035 26.9619 22.8817 27.1715 22.3077 27.3026Z" fill="#FAA0C8"/>
</svg>
